<mxfile host="drawio-plugin" modified="2023-05-16T13:56:37.090Z" agent="5.0 (Macintosh; Intel Mac OS X 10_15_7) AppleWebKit/537.36 (KHTML, like Gecko) Chrome/104.0.5112.102 Safari/537.36" version="20.5.3" etag="6WJ2YVUYdn6n_u7REhly" type="embed"><diagram id="Yzj_7P4xCbGdsviZ6JX_" name="ページ1"><mxGraphModel dx="1161" dy="678" grid="1" gridSize="10" guides="1" tooltips="1" connect="1" arrows="1" fold="1" page="1" pageScale="1" pageWidth="827" pageHeight="1169" math="0" shadow="0"><root><mxCell id="0"/><mxCell id="1" parent="0"/><mxCell id="2" value="" style="rounded=0;whiteSpace=wrap;html=1;" parent="1" vertex="1"><mxGeometry x="100" y="130" width="460" height="230" as="geometry"/></mxCell></root></mxGraphModel></diagram></mxfile>